<svg width="24" height="20" viewBox="0 0 24 20" fill="none" xmlns="http://www.w3.org/2000/svg">
<path d="M23.7807 2.78486C22.89 3.17884 21.9454 3.43758 20.9783 3.55253C21.9977 2.94287 22.7606 1.98338 23.125 0.85286C22.1683 1.42219 21.1195 1.82119 20.0263 2.03703C19.292 1.25137 18.3187 0.730317 17.2578 0.554876C16.1968 0.379434 15.1076 0.559433 14.1595 1.06689C13.2113 1.57434 12.4574 2.38082 12.015 3.36095C11.5725 4.34108 11.4662 5.43994 11.7127 6.48669C9.77261 6.38946 7.87471 5.8853 6.14216 5.00697C4.4096 4.12863 2.88114 2.89575 1.65599 1.38836C1.22233 2.13322 0.994436 2.97996 0.995655 3.84186C0.995655 5.53353 1.85666 7.02803 3.16565 7.90303C2.391 7.87864 1.63339 7.66944 0.955988 7.29286V7.35353C0.956222 8.48018 1.34609 9.57208 2.05948 10.4441C2.77287 11.3161 3.76588 11.9146 4.87015 12.138C4.15104 12.3329 3.39701 12.3616 2.66515 12.222C2.9765 13.1918 3.58333 14.0399 4.40068 14.6477C5.21803 15.2554 6.20497 15.5923 7.22332 15.6112C6.21122 16.4061 5.05236 16.9937 3.81302 17.3404C2.57367 17.6871 1.27814 17.7862 0.000488281 17.6319C2.2308 19.0662 4.8271 19.8277 7.47882 19.8252C16.454 19.8252 21.3622 12.39 21.3622 5.94186C21.3622 5.73186 21.3563 5.51953 21.347 5.31186C22.3023 4.62139 23.1269 3.76605 23.7818 2.78603L23.7807 2.78486Z" fill="#888888"/>
</svg>
