<svg width="24" height="15" viewBox="0 0 24 15" fill="none" xmlns="http://www.w3.org/2000/svg">
<path fill-rule="evenodd" clip-rule="evenodd" d="M23.45 1.10535C23.616 0.559349 23.45 0.157349 22.655 0.157349H20.03C19.362 0.157349 19.054 0.504349 18.887 0.887349C18.887 0.887349 17.552 4.08335 15.661 6.15935C15.049 6.76135 14.771 6.95235 14.437 6.95235C14.27 6.95235 14.019 6.76135 14.019 6.21435V1.10535C14.019 0.449349 13.835 0.157349 13.279 0.157349H9.151C8.734 0.157349 8.483 0.461349 8.483 0.750349C8.483 1.37135 9.429 1.51535 9.526 3.26335V7.06135C9.526 7.89435 9.373 8.04535 9.039 8.04535C8.149 8.04535 5.984 4.83435 4.699 1.16035C4.45 0.445348 4.198 0.157349 3.527 0.157349H0.9C0.15 0.157349 0 0.504349 0 0.887349C0 1.56935 0.89 4.95735 4.145 9.43835C6.315 12.4983 9.37 14.1573 12.153 14.1573C13.822 14.1573 14.028 13.7893 14.028 13.1543V10.8413C14.028 10.1043 14.186 9.95735 14.715 9.95735C15.105 9.95735 15.772 10.1493 17.33 11.6243C19.11 13.3733 19.403 14.1573 20.405 14.1573H23.03C23.78 14.1573 24.156 13.7893 23.94 13.0613C23.702 12.3373 22.852 11.2863 21.725 10.0393C21.113 9.32935 20.195 8.56435 19.916 8.18135C19.527 7.69035 19.638 7.47135 19.916 7.03435C19.916 7.03435 23.116 2.60835 23.449 1.10535H23.45Z" fill="#888888"/>
</svg>
